<?xml version="1.0" standalone="no"?><svg xmlns:xlink="http://www.w3.org/1999/xlink" xmlns="http://www.w3.org/2000/svg" viewBox="0 0 1000 642.8612611227489" preserveAspectRatio="xMaxYMax slice"><g transform="scale(0.9609286414390866)"><rect x="0" y="0" width="1040.6666666666665" height="669" fill="#ffffff"/><circle cx="37.165" cy="37.165" r="7.435" fill="#d9feb8"/><polygon points="104.07,29.73 118.94,29.73 118.94,44.6" fill="#fec69b"/><polygon points="178.4,29.73 193.27,44.6 178.4,44.6" fill="#f6e9fc"/><polygon points="252.73,29.73 267.59999999999997,44.6 252.73,44.6" fill="#d8feb6"/><rect x="327.07" y="29.73" width="14.87" height="14.87" fill="#ffebdd"/><rect x="401.4" y="29.73" width="14.87" height="14.87" fill="#f4e4fb"/><polygon points="475.73,29.73 490.6,44.6 475.73,44.6" fill="#dffec3"/><rect x="550.07" y="29.73" width="14.87" height="14.87" fill="#f3ffe9"/><rect x="624.4" y="29.73" width="14.87" height="14.87" fill="#f4ffeb"/><circle cx="706.165" cy="37.165" r="7.435" fill="#fec497"/><circle cx="780.505" cy="37.165" r="7.435" fill="#fecca5"/><polygon points="847.4,29.73 862.27,44.6 847.4,44.6" fill="#e1fec8"/><circle cx="929.165" cy="37.165" r="7.435" fill="#dba9f4"/><polygon points="996.07,29.73 1010.94,29.73 996.07,44.6" fill="#fec497"/><circle cx="37.165" cy="111.505" r="7.435" fill="#fed6b7"/><circle cx="111.505" cy="111.505" r="7.435" fill="#d7feb4"/><polygon points="178.4,104.07 193.27,118.94 178.4,118.94" fill="#f8fff1"/><rect x="252.73" y="104.07" width="14.87" height="14.87" fill="#ebd0f9"/><circle cx="334.505" cy="111.505" r="7.435" fill="#fefffe"/><polygon points="401.4,104.07 416.27,118.94 401.4,118.94" fill="#f3e4fb"/><rect x="475.73" y="104.07" width="14.87" height="14.87" fill="#f0ffe4"/><polygon points="564.94,104.07 564.94,118.94 550.07,118.94" fill="#d4feae"/><circle cx="631.8349999999999" cy="111.505" r="7.435" fill="#e8caf8"/><circle cx="706.165" cy="111.505" r="7.435" fill="#f5e8fc"/><polygon points="787.94,104.07 787.94,118.94 773.07,118.94" fill="#f6ffee"/><polygon points="847.4,104.07 862.27,118.94 847.4,118.94" fill="#e0b6f5"/><circle cx="929.165" cy="111.505" r="7.435" fill="#e7fed3"/><polygon points="996.07,104.07 1010.94,104.07 996.07,118.94" fill="#fdfafe"/><circle cx="37.165" cy="185.835" r="7.435" fill="#fdfbff"/><polygon points="118.94,178.4 118.94,193.27 104.07,193.27" fill="#f7ecfd"/><rect x="178.4" y="178.4" width="14.87" height="14.87" fill="#defec2"/><rect x="252.73" y="178.4" width="14.87" height="14.87" fill="#f1ffe4"/><rect x="327.07" y="178.4" width="14.87" height="14.87" fill="#fedfc6"/><circle cx="408.835" cy="185.835" r="7.435" fill="#ffe4cf"/><rect x="475.73" y="178.4" width="14.87" height="14.87" fill="#fff2e9"/><circle cx="557.505" cy="185.835" r="7.435" fill="#ddaef4"/><circle cx="631.8349999999999" cy="185.835" r="7.435" fill="#ebffd9"/><rect x="698.73" y="178.4" width="14.87" height="14.87" fill="#dfb4f5"/><circle cx="780.505" cy="185.835" r="7.435" fill="#d9feb8"/><rect x="847.4" y="178.4" width="14.87" height="14.87" fill="#d6feb3"/><polygon points="921.73,178.4 936.6,178.4 936.6,193.27" fill="#ddfec0"/><polygon points="996.07,178.4 1010.94,178.4 996.07,193.27" fill="#e3bdf6"/><rect x="29.73" y="252.73" width="14.87" height="14.87" fill="#faf4fd"/><rect x="104.07" y="252.73" width="14.87" height="14.87" fill="#fffaf6"/><rect x="178.4" y="252.73" width="14.87" height="14.87" fill="#f2ffe7"/><polygon points="252.73,252.73 267.59999999999997,252.73 267.59999999999997,267.59999999999997" fill="#ffe9d8"/><rect x="327.07" y="252.73" width="14.87" height="14.87" fill="#edffde"/><circle cx="408.835" cy="260.16499999999996" r="7.435" fill="#e5fecf"/><polygon points="490.6,252.73 490.6,267.59999999999997 475.73,267.59999999999997" fill="#fcfff9"/><circle cx="557.505" cy="260.16499999999996" r="7.435" fill="#fecda6"/><rect x="624.4" y="252.73" width="14.87" height="14.87" fill="#fdfafe"/><polygon points="713.6,252.73 713.6,267.59999999999997 698.73,267.59999999999997" fill="#dafeba"/><rect x="773.07" y="252.73" width="14.87" height="14.87" fill="#d7feb4"/><polygon points="847.4,252.73 862.27,267.59999999999997 847.4,267.59999999999997" fill="#fcfffa"/><rect x="921.73" y="252.73" width="14.87" height="14.87" fill="#f0ffe2"/><polygon points="1010.94,252.73 1010.94,267.59999999999997 996.07,267.59999999999997" fill="#fec497"/><polygon points="29.73,327.07 44.6,327.07 29.73,341.94" fill="#fbf5fe"/><rect x="104.07" y="327.07" width="14.87" height="14.87" fill="#eaffd8"/><polygon points="193.27,327.07 193.27,341.94 178.4,341.94" fill="#daa7f3"/><circle cx="260.16499999999996" cy="334.505" r="7.435" fill="#ecd3f9"/><circle cx="334.505" cy="334.505" r="7.435" fill="#f4ffeb"/><rect x="401.4" y="327.07" width="14.87" height="14.87" fill="#fecda7"/><polygon points="490.6,327.07 490.6,341.94 475.73,341.94" fill="#fec293"/><circle cx="557.505" cy="334.505" r="7.435" fill="#f8eefd"/><polygon points="639.27,327.07 639.27,341.94 624.4,341.94" fill="#d3fead"/><circle cx="706.165" cy="334.505" r="7.435" fill="#fafff6"/><polygon points="773.07,327.07 787.94,327.07 787.94,341.94" fill="#ffe3ce"/><circle cx="854.8349999999999" cy="334.505" r="7.435" fill="#fec294"/><circle cx="929.165" cy="334.505" r="7.435" fill="#deb1f5"/><rect x="996.07" y="327.07" width="14.87" height="14.87" fill="#fff1e5"/><rect x="29.73" y="401.4" width="14.87" height="14.87" fill="#ffe7d5"/><polygon points="104.07,401.4 118.94,401.4 118.94,416.27" fill="#fedbc0"/><circle cx="185.835" cy="408.835" r="7.435" fill="#f4e6fc"/><circle cx="260.16499999999996" cy="408.835" r="7.435" fill="#f3ffe9"/><circle cx="334.505" cy="408.835" r="7.435" fill="#fcf7fe"/><circle cx="408.835" cy="408.835" r="7.435" fill="#fed2af"/><rect x="475.73" y="401.4" width="14.87" height="14.87" fill="#fed5b4"/><circle cx="557.505" cy="408.835" r="7.435" fill="#fed8ba"/><rect x="624.4" y="401.4" width="14.87" height="14.87" fill="#fec395"/><polygon points="713.6,401.4 713.6,416.27 698.73,416.27" fill="#fefdff"/><polygon points="773.07,401.4 787.94,416.27 773.07,416.27" fill="#ffeddf"/><circle cx="854.8349999999999" cy="408.835" r="7.435" fill="#deb0f5"/><circle cx="929.165" cy="408.835" r="7.435" fill="#fff8f2"/><polygon points="996.07,401.4 1010.94,401.4 996.07,416.27" fill="#f8effd"/><circle cx="37.165" cy="483.165" r="7.435" fill="#f9f1fd"/><circle cx="111.505" cy="483.165" r="7.435" fill="#ebcff9"/><circle cx="185.835" cy="483.165" r="7.435" fill="#fff3e9"/><polygon points="252.73,475.73 267.59999999999997,475.73 267.59999999999997,490.6" fill="#ffefe4"/><circle cx="334.505" cy="483.165" r="7.435" fill="#fec294"/><circle cx="408.835" cy="483.165" r="7.435" fill="#ffe7d5"/><rect x="475.73" y="475.73" width="14.87" height="14.87" fill="#fff4ec"/><polygon points="564.94,475.73 564.94,490.6 550.07,490.6" fill="#d4feaf"/><rect x="624.4" y="475.73" width="14.87" height="14.87" fill="#d9feb9"/><circle cx="706.165" cy="483.165" r="7.435" fill="#fed1ae"/><polygon points="773.07,475.73 787.94,475.73 787.94,490.6" fill="#e9ccf8"/><circle cx="854.8349999999999" cy="483.165" r="7.435" fill="#f1defb"/><rect x="921.73" y="475.73" width="14.87" height="14.87" fill="#f8eefd"/><polygon points="996.07,475.73 1010.94,475.73 996.07,490.6" fill="#f8fff1"/><polygon points="29.73,550.07 44.6,550.07 29.73,564.94" fill="#ffe5d1"/><circle cx="111.505" cy="557.505" r="7.435" fill="#e4c0f7"/><circle cx="185.835" cy="557.505" r="7.435" fill="#ffebdb"/><rect x="252.73" y="550.07" width="14.87" height="14.87" fill="#e1fec7"/><circle cx="334.505" cy="557.505" r="7.435" fill="#d4feae"/><circle cx="408.835" cy="557.505" r="7.435" fill="#deb0f4"/><circle cx="483.165" cy="557.505" r="7.435" fill="#fbf6fe"/><rect x="550.07" y="550.07" width="14.87" height="14.87" fill="#dcacf4"/><circle cx="631.8349999999999" cy="557.505" r="7.435" fill="#ffeee0"/><rect x="698.73" y="550.07" width="14.87" height="14.87" fill="#fec395"/><circle cx="780.505" cy="557.505" r="7.435" fill="#deb0f4"/><circle cx="854.8349999999999" cy="557.505" r="7.435" fill="#fffdfb"/><rect x="921.73" y="550.07" width="14.87" height="14.87" fill="#fff1e7"/><polygon points="1010.94,550.07 1010.94,564.94 996.07,564.94" fill="#f0ddfa"/><polygon points="29.73,624.4 44.6,624.4 44.6,639.27" fill="#eed7fa"/><rect x="104.07" y="624.4" width="14.87" height="14.87" fill="#f1defb"/><polygon points="178.4,624.4 193.27,639.27 178.4,639.27" fill="#f1dffb"/><polygon points="252.73,624.4 267.59999999999997,639.27 252.73,639.27" fill="#fec293"/><polygon points="327.07,624.4 341.94,624.4 341.94,639.27" fill="#d8feb7"/><polygon points="401.4,624.4 416.27,639.27 401.4,639.27" fill="#fed1af"/><circle cx="483.165" cy="631.8349999999999" r="7.435" fill="#f5ffeb"/><circle cx="557.505" cy="631.8349999999999" r="7.435" fill="#fec79c"/><circle cx="631.8349999999999" cy="631.8349999999999" r="7.435" fill="#efd9fa"/><polygon points="698.73,624.4 713.6,624.4 713.6,639.27" fill="#fecda6"/><polygon points="773.07,624.4 787.94,639.27 773.07,639.27" fill="#ffffff"/><rect x="847.4" y="624.4" width="14.87" height="14.87" fill="#e2baf6"/><polygon points="921.73,624.4 936.6,624.4 936.6,639.27" fill="#efffe2"/><circle cx="1003.505" cy="631.8349999999999" r="7.435" fill="#fecca5"/></g></svg>