<?xml version="1.0" standalone="no"?><svg xmlns:xlink="http://www.w3.org/1999/xlink" xmlns="http://www.w3.org/2000/svg" viewBox="0 0 1000 625.0057785297572" preserveAspectRatio="xMaxYMax slice"><g transform="scale(0.924564761138694)"><rect x="0" y="0" width="1081.6" height="676" fill="#ffffff"/><rect x="84.5" y="16.9" width="33.8" height="33.8" fill="#ffffff"/><rect x="101.4" y="16.9" width="16.9" height="16.9" fill="#ffdd73"/><rect x="219.7" y="16.9" width="33.8" height="33.8" fill="#ffffff"/><circle cx="228.14999999999998" cy="25.349999999999998" r="8.45" fill="#f65f53"/><rect x="236.6" y="33.8" width="16.9" height="16.9" fill="#ffdb67"/><rect x="354.9" y="16.9" width="33.8" height="33.8" fill="#ffffff"/><rect x="490.0999999999999" y="16.9" width="33.8" height="33.8" fill="#ffffff"/><rect x="490.1" y="33.8" width="16.9" height="16.9" fill="#eff7fe"/><rect x="625.3" y="16.9" width="33.8" height="33.8" fill="#ffffff"/><circle cx="633.75" cy="42.25" r="8.45" fill="#f8847b"/><rect x="692.9" y="16.9" width="33.8" height="33.8" fill="#ffffff"/><circle cx="718.25" cy="42.25" r="8.45" fill="#fffefa"/><rect x="760.4999999999999" y="16.9" width="33.8" height="33.8" fill="#ffffff"/><circle cx="768.95" cy="25.349999999999998" r="8.45" fill="#ffe07f"/><rect x="963.2999999999998" y="16.9" width="33.8" height="33.8" fill="#ffffff"/><rect x="963.3" y="16.9" width="16.9" height="16.9" fill="#eef7fe"/><rect x="287.29999999999995" y="84.5" width="33.8" height="33.8" fill="#ffffff"/><rect x="304.2" y="84.5" width="16.9" height="16.9" fill="#f66055"/><polygon points="287.3,101.4 304.2,118.30000000000001 287.3,118.30000000000001" fill="#bee0fb"/><polygon points="304.2,101.4 321.09999999999997,101.4 321.09999999999997,118.30000000000001" fill="#f99891"/><rect x="422.49999999999994" y="84.5" width="33.8" height="33.8" fill="#ffffff"/><circle cx="447.84999999999997" cy="92.95" r="8.45" fill="#feeeed"/><rect x="490.0999999999999" y="84.5" width="33.8" height="33.8" fill="#ffffff"/><rect x="692.9" y="84.5" width="33.8" height="33.8" fill="#ffffff"/><polygon points="692.9,84.5 709.8,101.4 692.9,101.4" fill="#fffefe"/><circle cx="718.25" cy="92.95" r="8.45" fill="#fff6db"/><polygon points="709.8,101.4 709.8,118.30000000000001 692.9,118.30000000000001" fill="#ffe89d"/><rect x="760.4999999999999" y="84.5" width="33.8" height="33.8" fill="#ffffff"/><circle cx="785.85" cy="92.95" r="8.45" fill="#8dc8f8"/><rect x="828.0999999999999" y="84.5" width="33.8" height="33.8" fill="#ffffff"/><polygon points="845,84.5 861.9,84.5 845,101.4" fill="#fdfeff"/><circle cx="836.5500000000001" cy="109.85000000000001" r="8.45" fill="#96cdf9"/><polygon points="845,101.4 861.9,101.4 861.9,118.30000000000001" fill="#fff4cf"/><rect x="84.5" y="152.1" width="33.8" height="33.8" fill="#ffffff"/><rect x="101.4" y="152.1" width="16.9" height="16.9" fill="#fff6d9"/><polygon points="101.4,169 118.30000000000001,185.9 101.4,185.9" fill="#7bc0f7"/><rect x="219.7" y="152.1" width="33.8" height="33.8" fill="#ffffff"/><rect x="490.0999999999999" y="152.1" width="33.8" height="33.8" fill="#ffffff"/><circle cx="498.55" cy="160.54999999999998" r="8.45" fill="#f76f65"/><polygon points="507,152.1 523.9,152.1 523.9,169" fill="#d6ebfd"/><rect x="557.6999999999999" y="152.1" width="33.8" height="33.8" fill="#ffffff"/><rect x="574.6" y="169" width="16.9" height="16.9" fill="#faa59f"/><rect x="692.9" y="152.1" width="33.8" height="33.8" fill="#ffffff"/><circle cx="701.35" cy="160.54999999999998" r="8.45" fill="#f99d97"/><polygon points="709.8,169 726.6999999999999,169 709.8,185.9" fill="#fff8f8"/><rect x="16.9" y="219.7" width="33.8" height="33.8" fill="#ffffff"/><circle cx="25.349999999999998" cy="245.04999999999998" r="8.45" fill="#fffae9"/><circle cx="42.25" cy="245.04999999999998" r="8.45" fill="#ffd757"/><rect x="354.9" y="219.7" width="33.8" height="33.8" fill="#ffffff"/><polygon points="354.9,236.6 371.79999999999995,236.6 371.79999999999995,253.5" fill="#fcc5c1"/><circle cx="380.25" cy="245.04999999999998" r="8.45" fill="#e8f4fe"/><rect x="828.0999999999999" y="219.7" width="33.8" height="33.8" fill="#ffffff"/><polygon points="828.1,236.6 845,236.6 845,253.5" fill="#f44b3f"/><rect x="895.6999999999999" y="219.7" width="33.8" height="33.8" fill="#ffffff"/><circle cx="921.0500000000001" cy="228.14999999999998" r="8.45" fill="#faaca6"/><polygon points="895.7,236.6 912.6,253.5 895.7,253.5" fill="#fcd0cd"/><rect x="963.2999999999998" y="219.7" width="33.8" height="33.8" fill="#ffffff"/><circle cx="971.75" cy="228.14999999999998" r="8.45" fill="#fffdf6"/><polygon points="980.2,236.6 997.1,253.5 980.2,253.5" fill="#f9968f"/><rect x="152.1" y="287.29999999999995" width="33.8" height="33.8" fill="#ffffff"/><polygon points="185.9,287.3 185.9,304.2 169,304.2" fill="#fefeff"/><polygon points="169,304.2 185.9,304.2 185.9,321.09999999999997" fill="#f65e53"/><rect x="287.29999999999995" y="287.29999999999995" width="33.8" height="33.8" fill="#ffffff"/><polygon points="321.09999999999997,287.3 321.09999999999997,304.2 304.2,304.2" fill="#dceefd"/><circle cx="312.65" cy="312.65" r="8.45" fill="#dbeefd"/><rect x="354.9" y="287.29999999999995" width="33.8" height="33.8" fill="#ffffff"/><circle cx="363.34999999999997" cy="295.75" r="8.45" fill="#96cdf9"/><polygon points="354.9,304.2 371.79999999999995,321.09999999999997 354.9,321.09999999999997" fill="#fffbef"/><rect x="557.6999999999999" y="287.29999999999995" width="33.8" height="33.8" fill="#ffffff"/><polygon points="574.6,287.3 591.5,304.2 574.6,304.2" fill="#fffffe"/><circle cx="566.1500000000001" cy="312.65" r="8.45" fill="#f87f76"/><polygon points="574.6,304.2 591.5,304.2 574.6,321.09999999999997" fill="#f66d63"/><rect x="16.9" y="354.9" width="33.8" height="33.8" fill="#ffffff"/><circle cx="42.25" cy="363.34999999999997" r="8.45" fill="#ffd756"/><polygon points="33.8,371.8 50.699999999999996,371.8 33.8,388.7" fill="#7fc2f8"/><rect x="219.7" y="354.9" width="33.8" height="33.8" fill="#ffffff"/><rect x="625.3" y="354.9" width="33.8" height="33.8" fill="#ffffff"/><polygon points="642.2,354.9 659.1,354.9 659.1,371.79999999999995" fill="#b8ddfb"/><rect x="760.4999999999999" y="354.9" width="33.8" height="33.8" fill="#ffffff"/><circle cx="785.85" cy="363.34999999999997" r="8.45" fill="#fff6d9"/><rect x="963.2999999999998" y="354.9" width="33.8" height="33.8" fill="#ffffff"/><polygon points="963.3,354.9 980.1999999999999,354.9 980.1999999999999,371.79999999999995" fill="#ffe388"/><rect x="980.2" y="354.9" width="16.9" height="16.9" fill="#ffdd70"/><rect x="1030.8999999999999" y="354.9" width="33.8" height="33.8" fill="#ffffff"/><polygon points="1030.9,354.9 1047.8000000000002,371.79999999999995 1030.9,371.79999999999995" fill="#ffe694"/><rect x="1030.9" y="371.8" width="16.9" height="16.9" fill="#daedfd"/><rect x="84.5" y="422.49999999999994" width="33.8" height="33.8" fill="#ffffff"/><polygon points="84.5,422.5 101.4,422.5 101.4,439.4" fill="#7cc1f7"/><polygon points="101.4,439.4 101.4,456.29999999999995 84.5,456.29999999999995" fill="#ffdf78"/><rect x="101.4" y="439.4" width="16.9" height="16.9" fill="#73bcf7"/><rect x="219.7" y="422.49999999999994" width="33.8" height="33.8" fill="#ffffff"/><circle cx="245.04999999999998" cy="430.95" r="8.45" fill="#ffd961"/><circle cx="228.14999999999998" cy="447.84999999999997" r="8.45" fill="#ffeeb6"/><circle cx="245.04999999999998" cy="447.84999999999997" r="8.45" fill="#f88b83"/><rect x="490.0999999999999" y="422.49999999999994" width="33.8" height="33.8" fill="#ffffff"/><polygon points="490.1,422.5 507,439.4 490.1,439.4" fill="#b3dbfb"/><polygon points="507,439.4 523.9,439.4 523.9,456.29999999999995" fill="#fff0c1"/><rect x="692.9" y="422.49999999999994" width="33.8" height="33.8" fill="#ffffff"/><rect x="760.4999999999999" y="422.49999999999994" width="33.8" height="33.8" fill="#ffffff"/><rect x="760.5" y="422.5" width="16.9" height="16.9" fill="#f6685d"/><rect x="828.0999999999999" y="422.49999999999994" width="33.8" height="33.8" fill="#ffffff"/><circle cx="836.5500000000001" cy="430.95" r="8.45" fill="#f5574b"/><circle cx="853.45" cy="430.95" r="8.45" fill="#fff9e5"/><polygon points="828.1,439.4 845,456.29999999999995 828.1,456.29999999999995" fill="#ffe696"/><polygon points="861.9,439.4 861.9,456.29999999999995 845,456.29999999999995" fill="#fdd5d2"/><rect x="895.6999999999999" y="422.49999999999994" width="33.8" height="33.8" fill="#ffffff"/><rect x="912.6" y="439.4" width="16.9" height="16.9" fill="#f6fbfe"/><rect x="1030.8999999999999" y="422.49999999999994" width="33.8" height="33.8" fill="#ffffff"/><rect x="1030.9" y="422.5" width="16.9" height="16.9" fill="#6ab8f6"/><polygon points="1030.9,439.4 1047.8000000000002,439.4 1030.9,456.29999999999995" fill="#fffaeb"/><polygon points="1047.8,439.4 1064.7,439.4 1047.8,456.29999999999995" fill="#fcceca"/><rect x="16.9" y="490.0999999999999" width="33.8" height="33.8" fill="#ffffff"/><rect x="33.8" y="507" width="16.9" height="16.9" fill="#f66e64"/><rect x="152.1" y="490.0999999999999" width="33.8" height="33.8" fill="#ffffff"/><rect x="152.1" y="507" width="16.9" height="16.9" fill="#fef0ef"/><rect x="219.7" y="490.0999999999999" width="33.8" height="33.8" fill="#ffffff"/><rect x="287.29999999999995" y="490.0999999999999" width="33.8" height="33.8" fill="#ffffff"/><rect x="304.2" y="490.1" width="16.9" height="16.9" fill="#ffedb2"/><polygon points="304.2,507 321.09999999999997,523.9 304.2,523.9" fill="#fbc0bc"/><rect x="557.6999999999999" y="490.0999999999999" width="33.8" height="33.8" fill="#ffffff"/><circle cx="583.0500000000001" cy="498.55" r="8.45" fill="#ffdc6c"/><rect x="625.3" y="490.0999999999999" width="33.8" height="33.8" fill="#ffffff"/><rect x="895.6999999999999" y="490.0999999999999" width="33.8" height="33.8" fill="#ffffff"/><rect x="1030.8999999999999" y="490.0999999999999" width="33.8" height="33.8" fill="#ffffff"/><polygon points="1030.9,507 1047.8000000000002,507 1030.9,523.9" fill="#fffdfd"/><rect x="219.7" y="557.6999999999999" width="33.8" height="33.8" fill="#ffffff"/><circle cx="228.14999999999998" cy="566.1500000000001" r="8.45" fill="#77bef7"/><circle cx="228.14999999999998" cy="583.0500000000001" r="8.45" fill="#cbe6fc"/><circle cx="245.04999999999998" cy="583.0500000000001" r="8.45" fill="#ffe79a"/><rect x="287.29999999999995" y="557.6999999999999" width="33.8" height="33.8" fill="#ffffff"/><rect x="354.9" y="557.6999999999999" width="33.8" height="33.8" fill="#ffffff"/><polygon points="354.9,557.7 371.79999999999995,557.7 371.79999999999995,574.6" fill="#fab1ab"/><circle cx="380.25" cy="566.1500000000001" r="8.45" fill="#badefb"/><rect x="490.0999999999999" y="557.6999999999999" width="33.8" height="33.8" fill="#ffffff"/><circle cx="498.55" cy="583.0500000000001" r="8.45" fill="#ffd961"/><rect x="557.6999999999999" y="557.6999999999999" width="33.8" height="33.8" fill="#ffffff"/><rect x="692.9" y="557.6999999999999" width="33.8" height="33.8" fill="#ffffff"/><rect x="692.9" y="574.6" width="16.9" height="16.9" fill="#fffefe"/><rect x="963.2999999999998" y="557.6999999999999" width="33.8" height="33.8" fill="#ffffff"/><rect x="980.2" y="557.7" width="16.9" height="16.9" fill="#fffdf8"/><polygon points="980.1999999999999,574.6 980.1999999999999,591.5 963.3,591.5" fill="#8fcaf8"/><rect x="1030.8999999999999" y="557.6999999999999" width="33.8" height="33.8" fill="#ffffff"/><circle cx="1056.25" cy="566.1500000000001" r="8.45" fill="#fffbef"/><circle cx="1039.3500000000001" cy="583.0500000000001" r="8.45" fill="#a6d4fa"/><rect x="219.7" y="625.3" width="33.8" height="33.8" fill="#ffffff"/><rect x="354.9" y="625.3" width="33.8" height="33.8" fill="#ffffff"/><rect x="371.8" y="625.3" width="16.9" height="16.9" fill="#fffdf6"/><rect x="692.9" y="625.3" width="33.8" height="33.8" fill="#ffffff"/><polygon points="692.9,642.2 709.8,659.1 692.9,659.1" fill="#fffefe"/><rect x="895.6999999999999" y="625.3" width="33.8" height="33.8" fill="#ffffff"/><circle cx="904.1500000000001" cy="650.6500000000001" r="8.45" fill="#bbdffb"/></g></svg>